<?xml version="1.0" encoding="utf-8"?>
<!-- Generator: Adobe Illustrator 21.0.0, SVG Export Plug-In . SVG Version: 6.00 Build 0)  -->
<svg version="1.1" id="图层_1" xmlns="http://www.w3.org/2000/svg" xmlns:xlink="http://www.w3.org/1999/xlink" x="0px" y="0px"
	 viewBox="0 0 2490.2 968" style="enable-background:new 0 0 2490.2 968;" xml:space="preserve">
<style type="text/css">
	.st0{stroke:#040000;stroke-width:0.5102;stroke-linecap:round;stroke-linejoin:round;stroke-miterlimit:10;}
</style>
<g id="ARC">
	<path class="st0" d="M5.7,134.6c0,0.2-0.1,0.4-0.1,0.7"/>
</g>
<path d="M506.3,127.2c-5.2,0-9.5,4.1-9.8,9.3V618c0,81.3-65.9,147.2-147.2,147.2S202,699.3,202,618V137c0-5.4-4.4-9.8-9.8-9.8H15.5
	c-5.2,0-9.5,4.1-9.8,9.3V618c0,189.7,153.8,343.5,343.5,343.5S692.7,807.7,692.7,618V166.1c0.2-5.3,4.5-9.5,9.8-9.5h117.8
	c5.4,0,9.8,4.4,9.8,9.8v113.4c0.3,5,4.3,8.9,9.2,9.2h69.8c5-0.3,8.9-4.3,9.2-9.2V166.2c0.1-5.4,4.5-9.7,9.8-9.7h122.7
	c2.7,0,4.9-2.2,4.9-4.9V132c0-2.7-2.2-4.9-4.9-4.9H928.1c-5.4,0-9.7-4.3-9.8-9.7c0,0,0-102.4,0-103.2c0-5.2-4.1-9.5-9.3-9.8h-69.3
	c-5.2,0-9.5,4.1-9.8,9.3v103.6c0,5.4-4.4,9.8-9.8,9.8L506.3,127.2z"/>
</svg>
