<?xml version="1.0" encoding="utf-8"?>
<!-- Generator: Adobe Illustrator 21.0.0, SVG Export Plug-In . SVG Version: 6.00 Build 0)  -->
<svg version="1.1" id="图层_1" xmlns="http://www.w3.org/2000/svg" xmlns:xlink="http://www.w3.org/1999/xlink" x="0px" y="0px"
	 viewBox="0 0 1065.8 967.8" style="enable-background:new 0 0 1065.8 967.8;" xml:space="preserve">
<style type="text/css">
	.st0{fill:none;}
	.st1{fill:#FFFFFF;stroke:#040000;stroke-width:0.5102;stroke-linecap:round;stroke-linejoin:round;stroke-miterlimit:10;}
	.st2{fill:#FFFFFF;}
</style>
<g id="LINE_1_">
	<line class="st0" x1="1096.5" y1="663.9" x2="1099.5" y2="662.4"/>
</g>
<g id="ARC">
	<path class="st1" d="M5.7,134.6c0,0.2-0.1,0.4-0.1,0.7"/>
</g>
<path class="st2" d="M504.8,128c-5.2,0-9.5,4.1-9.8,9.2v480.9c0,81.2-65.8,147-147,147s-147-65.8-147-147V137.8
	c0-5.4-4.4-9.8-9.8-9.8H14.7c-5.2,0-9.5,4.1-9.8,9.3v480.8c0,189.5,153.6,343.1,343.1,343.1s343.1-153.6,343.1-343.1V166.9
	c0.2-5.3,4.5-9.5,9.8-9.5h117.6c5.4,0,9.8,4.4,9.8,9.8v113.3c0.3,5,4.3,8.9,9.2,9.2h69.7c5-0.3,8.9-4.3,9.2-9.2V167.1
	c0.1-5.3,4.4-9.6,9.8-9.6h122.5c2.7,0,4.9-2.2,4.9-4.9V133c0-2.7-2.2-4.9-4.9-4.9H926.2c-5.4,0-9.7-4.3-9.8-9.6c0,0,0-102.3,0-103.1
	c0-5.2-4.1-9.5-9.2-9.8H838c-5.2,0-9.5,4.1-9.8,9.2v103.5c0,5.4-4.4,9.8-9.8,9.8L504.8,128z"/>
</svg>
